<?xml version="1.0" encoding="utf-8" standalone="no"?>
<!DOCTYPE svg PUBLIC "-//W3C//DTD SVG 1.1//EN"
  "http://www.w3.org/Graphics/SVG/1.1/DTD/svg11.dtd">
<svg xmlns:xlink="http://www.w3.org/1999/xlink" width="600.3pt" height="331.565572pt" viewBox="0 0 600.3 331.565572" xmlns="http://www.w3.org/2000/svg" version="1.1">
 <metadata>
  <rdf:RDF xmlns:dc="http://purl.org/dc/elements/1.1/" xmlns:cc="http://creativecommons.org/ns#" xmlns:rdf="http://www.w3.org/1999/02/22-rdf-syntax-ns#">
   <cc:Work>
    <dc:type rdf:resource="http://purl.org/dc/dcmitype/StillImage"/>
    <dc:date>2026-09-12T01:21:02.344871</dc:date>
    <dc:format>image/svg+xml</dc:format>
    <dc:creator>
     <cc:Agent>
      <dc:title>Matplotlib v3.10.9, https://matplotlib.org/</dc:title>
     </cc:Agent>
    </dc:creator>
   </cc:Work>
  </rdf:RDF>
 </metadata>
 <defs>
  <style type="text/css">*{stroke-linejoin: round; stroke-linecap: butt}</style>
 </defs>
 <g id="figure_1">
  <g id="patch_1">
   <path d="M 0 331.565572 
L 600.3 331.565572 
L 600.3 0 
L 0 0 
z
" style="fill: #ffffff"/>
  </g>
  <g id="axes_1">
   <g id="patch_2">
    <path d="M 77.508 87.359572 
L 522.792 87.359572 
Q 528.651 87.359572 528.651 84.199492 
L 528.651 43.118452 
Q 528.651 39.958372 522.792 39.958372 
L 77.508 39.958372 
Q 71.649 39.958372 71.649 43.118452 
L 71.649 84.199492 
Q 71.649 87.359572 77.508 87.359572 
z
" clip-path="url(#pa44c944503)" style="fill: #eef1f4; stroke: #476176; stroke-linejoin: miter"/>
   </g>
   <g id="patch_3">
    <path d="M 27.7065 232.723253 
L 279.6435 232.723253 
Q 285.5025 232.723253 285.5025 229.563172 
L 285.5025 122.120452 
Q 285.5025 118.960372 279.6435 118.960372 
L 27.7065 118.960372 
Q 21.8475 118.960372 21.8475 122.120452 
L 21.8475 229.563172 
Q 21.8475 232.723253 27.7065 232.723253 
z
" clip-path="url(#pa44c944503)" style="fill: #fff1e4; stroke: #476176; stroke-linejoin: miter"/>
   </g>
   <g id="patch_4">
    <path d="M 320.6565 232.723253 
L 572.5935 232.723253 
Q 578.4525 232.723253 578.4525 229.563172 
L 578.4525 122.120452 
Q 578.4525 118.960372 572.5935 118.960372 
L 320.6565 118.960372 
Q 314.7975 118.960372 314.7975 122.120452 
L 314.7975 229.563172 
Q 314.7975 232.723253 320.6565 232.723253 
z
" clip-path="url(#pa44c944503)" style="fill: #e6f1fb; stroke: #476176; stroke-linejoin: miter"/>
   </g>
   <g id="patch_5">
    <path d="M 95.085 303.825052 
L 505.215 303.825052 
Q 511.074 303.825052 511.074 300.664972 
L 511.074 259.583932 
Q 511.074 256.423852 505.215 256.423852 
L 95.085 256.423852 
Q 89.226 256.423852 89.226 259.583932 
L 89.226 300.664972 
Q 89.226 303.825052 95.085 303.825052 
z
" clip-path="url(#pa44c944503)" style="fill: #eef1f4; stroke: #476176; stroke-linejoin: miter"/>
   </g>
   <g id="text_1">
    <!-- One shared system, two observation-gain weightings -->
    <g transform="translate(113.534375 17.837812) scale(0.14 -0.14)">
     <defs>
      <path id="DejaVuSans-4f" d="M 2522 4238 
Q 1834 4238 1429 3725 
Q 1025 3213 1025 2328 
Q 1025 1447 1429 934 
Q 1834 422 2522 422 
Q 3209 422 3611 934 
Q 4013 1447 4013 2328 
Q 4013 3213 3611 3725 
Q 3209 4238 2522 4238 
z
M 2522 4750 
Q 3503 4750 4090 4092 
Q 4678 3434 4678 2328 
Q 4678 1225 4090 567 
Q 3503 -91 2522 -91 
Q 1538 -91 948 565 
Q 359 1222 359 2328 
Q 359 3434 948 4092 
Q 1538 4750 2522 4750 
z
" transform="scale(0.015625)"/>
      <path id="DejaVuSans-6e" d="M 3513 2113 
L 3513 0 
L 2938 0 
L 2938 2094 
Q 2938 2591 2744 2837 
Q 2550 3084 2163 3084 
Q 1697 3084 1428 2787 
Q 1159 2491 1159 1978 
L 1159 0 
L 581 0 
L 581 3500 
L 1159 3500 
L 1159 2956 
Q 1366 3272 1645 3428 
Q 1925 3584 2291 3584 
Q 2894 3584 3203 3211 
Q 3513 2838 3513 2113 
z
" transform="scale(0.015625)"/>
      <path id="DejaVuSans-65" d="M 3597 1894 
L 3597 1613 
L 953 1613 
Q 991 1019 1311 708 
Q 1631 397 2203 397 
Q 2534 397 2845 478 
Q 3156 559 3463 722 
L 3463 178 
Q 3153 47 2828 -22 
Q 2503 -91 2169 -91 
Q 1331 -91 842 396 
Q 353 884 353 1716 
Q 353 2575 817 3079 
Q 1281 3584 2069 3584 
Q 2775 3584 3186 3129 
Q 3597 2675 3597 1894 
z
M 3022 2063 
Q 3016 2534 2758 2815 
Q 2500 3097 2075 3097 
Q 1594 3097 1305 2825 
Q 1016 2553 972 2059 
L 3022 2063 
z
" transform="scale(0.015625)"/>
      <path id="DejaVuSans-20" transform="scale(0.015625)"/>
      <path id="DejaVuSans-73" d="M 2834 3397 
L 2834 2853 
Q 2591 2978 2328 3040 
Q 2066 3103 1784 3103 
Q 1356 3103 1142 2972 
Q 928 2841 928 2578 
Q 928 2378 1081 2264 
Q 1234 2150 1697 2047 
L 1894 2003 
Q 2506 1872 2764 1633 
Q 3022 1394 3022 966 
Q 3022 478 2636 193 
Q 2250 -91 1575 -91 
Q 1294 -91 989 -36 
Q 684 19 347 128 
L 347 722 
Q 666 556 975 473 
Q 1284 391 1588 391 
Q 1994 391 2212 530 
Q 2431 669 2431 922 
Q 2431 1156 2273 1281 
Q 2116 1406 1581 1522 
L 1381 1569 
Q 847 1681 609 1914 
Q 372 2147 372 2553 
Q 372 3047 722 3315 
Q 1072 3584 1716 3584 
Q 2034 3584 2315 3537 
Q 2597 3491 2834 3397 
z
" transform="scale(0.015625)"/>
      <path id="DejaVuSans-68" d="M 3513 2113 
L 3513 0 
L 2938 0 
L 2938 2094 
Q 2938 2591 2744 2837 
Q 2550 3084 2163 3084 
Q 1697 3084 1428 2787 
Q 1159 2491 1159 1978 
L 1159 0 
L 581 0 
L 581 4863 
L 1159 4863 
L 1159 2956 
Q 1366 3272 1645 3428 
Q 1925 3584 2291 3584 
Q 2894 3584 3203 3211 
Q 3513 2838 3513 2113 
z
" transform="scale(0.015625)"/>
      <path id="DejaVuSans-61" d="M 2194 1759 
Q 1497 1759 1228 1600 
Q 959 1441 959 1056 
Q 959 750 1161 570 
Q 1363 391 1709 391 
Q 2188 391 2477 730 
Q 2766 1069 2766 1631 
L 2766 1759 
L 2194 1759 
z
M 3341 1997 
L 3341 0 
L 2766 0 
L 2766 531 
Q 2569 213 2275 61 
Q 1981 -91 1556 -91 
Q 1019 -91 701 211 
Q 384 513 384 1019 
Q 384 1609 779 1909 
Q 1175 2209 1959 2209 
L 2766 2209 
L 2766 2266 
Q 2766 2663 2505 2880 
Q 2244 3097 1772 3097 
Q 1472 3097 1187 3025 
Q 903 2953 641 2809 
L 641 3341 
Q 956 3463 1253 3523 
Q 1550 3584 1831 3584 
Q 2591 3584 2966 3190 
Q 3341 2797 3341 1997 
z
" transform="scale(0.015625)"/>
      <path id="DejaVuSans-72" d="M 2631 2963 
Q 2534 3019 2420 3045 
Q 2306 3072 2169 3072 
Q 1681 3072 1420 2755 
Q 1159 2438 1159 1844 
L 1159 0 
L 581 0 
L 581 3500 
L 1159 3500 
L 1159 2956 
Q 1341 3275 1631 3429 
Q 1922 3584 2338 3584 
Q 2397 3584 2469 3576 
Q 2541 3569 2628 3553 
L 2631 2963 
z
" transform="scale(0.015625)"/>
      <path id="DejaVuSans-64" d="M 2906 2969 
L 2906 4863 
L 3481 4863 
L 3481 0 
L 2906 0 
L 2906 525 
Q 2725 213 2448 61 
Q 2172 -91 1784 -91 
Q 1150 -91 751 415 
Q 353 922 353 1747 
Q 353 2572 751 3078 
Q 1150 3584 1784 3584 
Q 2172 3584 2448 3432 
Q 2725 3281 2906 2969 
z
M 947 1747 
Q 947 1113 1208 752 
Q 1469 391 1925 391 
Q 2381 391 2643 752 
Q 2906 1113 2906 1747 
Q 2906 2381 2643 2742 
Q 2381 3103 1925 3103 
Q 1469 3103 1208 2742 
Q 947 2381 947 1747 
z
" transform="scale(0.015625)"/>
      <path id="DejaVuSans-79" d="M 2059 -325 
Q 1816 -950 1584 -1140 
Q 1353 -1331 966 -1331 
L 506 -1331 
L 506 -850 
L 844 -850 
Q 1081 -850 1212 -737 
Q 1344 -625 1503 -206 
L 1606 56 
L 191 3500 
L 800 3500 
L 1894 763 
L 2988 3500 
L 3597 3500 
L 2059 -325 
z
" transform="scale(0.015625)"/>
      <path id="DejaVuSans-74" d="M 1172 4494 
L 1172 3500 
L 2356 3500 
L 2356 3053 
L 1172 3053 
L 1172 1153 
Q 1172 725 1289 603 
Q 1406 481 1766 481 
L 2356 481 
L 2356 0 
L 1766 0 
Q 1100 0 847 248 
Q 594 497 594 1153 
L 594 3053 
L 172 3053 
L 172 3500 
L 594 3500 
L 594 4494 
L 1172 4494 
z
" transform="scale(0.015625)"/>
      <path id="DejaVuSans-6d" d="M 3328 2828 
Q 3544 3216 3844 3400 
Q 4144 3584 4550 3584 
Q 5097 3584 5394 3201 
Q 5691 2819 5691 2113 
L 5691 0 
L 5113 0 
L 5113 2094 
Q 5113 2597 4934 2840 
Q 4756 3084 4391 3084 
Q 3944 3084 3684 2787 
Q 3425 2491 3425 1978 
L 3425 0 
L 2847 0 
L 2847 2094 
Q 2847 2600 2669 2842 
Q 2491 3084 2119 3084 
Q 1678 3084 1418 2786 
Q 1159 2488 1159 1978 
L 1159 0 
L 581 0 
L 581 3500 
L 1159 3500 
L 1159 2956 
Q 1356 3278 1631 3431 
Q 1906 3584 2284 3584 
Q 2666 3584 2933 3390 
Q 3200 3197 3328 2828 
z
" transform="scale(0.015625)"/>
      <path id="DejaVuSans-2c" d="M 750 794 
L 1409 794 
L 1409 256 
L 897 -744 
L 494 -744 
L 750 256 
L 750 794 
z
" transform="scale(0.015625)"/>
      <path id="DejaVuSans-77" d="M 269 3500 
L 844 3500 
L 1563 769 
L 2278 3500 
L 2956 3500 
L 3675 769 
L 4391 3500 
L 4966 3500 
L 4050 0 
L 3372 0 
L 2619 2869 
L 1863 0 
L 1184 0 
L 269 3500 
z
" transform="scale(0.015625)"/>
      <path id="DejaVuSans-6f" d="M 1959 3097 
Q 1497 3097 1228 2736 
Q 959 2375 959 1747 
Q 959 1119 1226 758 
Q 1494 397 1959 397 
Q 2419 397 2687 759 
Q 2956 1122 2956 1747 
Q 2956 2369 2687 2733 
Q 2419 3097 1959 3097 
z
M 1959 3584 
Q 2709 3584 3137 3096 
Q 3566 2609 3566 1747 
Q 3566 888 3137 398 
Q 2709 -91 1959 -91 
Q 1206 -91 779 398 
Q 353 888 353 1747 
Q 353 2609 779 3096 
Q 1206 3584 1959 3584 
z
" transform="scale(0.015625)"/>
      <path id="DejaVuSans-62" d="M 3116 1747 
Q 3116 2381 2855 2742 
Q 2594 3103 2138 3103 
Q 1681 3103 1420 2742 
Q 1159 2381 1159 1747 
Q 1159 1113 1420 752 
Q 1681 391 2138 391 
Q 2594 391 2855 752 
Q 3116 1113 3116 1747 
z
M 1159 2969 
Q 1341 3281 1617 3432 
Q 1894 3584 2278 3584 
Q 2916 3584 3314 3078 
Q 3713 2572 3713 1747 
Q 3713 922 3314 415 
Q 2916 -91 2278 -91 
Q 1894 -91 1617 61 
Q 1341 213 1159 525 
L 1159 0 
L 581 0 
L 581 4863 
L 1159 4863 
L 1159 2969 
z
" transform="scale(0.015625)"/>
      <path id="DejaVuSans-76" d="M 191 3500 
L 800 3500 
L 1894 563 
L 2988 3500 
L 3597 3500 
L 2284 0 
L 1503 0 
L 191 3500 
z
" transform="scale(0.015625)"/>
      <path id="DejaVuSans-69" d="M 603 3500 
L 1178 3500 
L 1178 0 
L 603 0 
L 603 3500 
z
M 603 4863 
L 1178 4863 
L 1178 4134 
L 603 4134 
L 603 4863 
z
" transform="scale(0.015625)"/>
      <path id="DejaVuSans-2d" d="M 313 2009 
L 1997 2009 
L 1997 1497 
L 313 1497 
L 313 2009 
z
" transform="scale(0.015625)"/>
      <path id="DejaVuSans-67" d="M 2906 1791 
Q 2906 2416 2648 2759 
Q 2391 3103 1925 3103 
Q 1463 3103 1205 2759 
Q 947 2416 947 1791 
Q 947 1169 1205 825 
Q 1463 481 1925 481 
Q 2391 481 2648 825 
Q 2906 1169 2906 1791 
z
M 3481 434 
Q 3481 -459 3084 -895 
Q 2688 -1331 1869 -1331 
Q 1566 -1331 1297 -1286 
Q 1028 -1241 775 -1147 
L 775 -588 
Q 1028 -725 1275 -790 
Q 1522 -856 1778 -856 
Q 2344 -856 2625 -561 
Q 2906 -266 2906 331 
L 2906 616 
Q 2728 306 2450 153 
Q 2172 0 1784 0 
Q 1141 0 747 490 
Q 353 981 353 1791 
Q 353 2603 747 3093 
Q 1141 3584 1784 3584 
Q 2172 3584 2450 3431 
Q 2728 3278 2906 2969 
L 2906 3500 
L 3481 3500 
L 3481 434 
z
" transform="scale(0.015625)"/>
     </defs>
     <use xlink:href="#DejaVuSans-4f"/>
     <use xlink:href="#DejaVuSans-6e" transform="translate(78.710938 0)"/>
     <use xlink:href="#DejaVuSans-65" transform="translate(142.089844 0)"/>
     <use xlink:href="#DejaVuSans-20" transform="translate(203.613281 0)"/>
     <use xlink:href="#DejaVuSans-73" transform="translate(235.400391 0)"/>
     <use xlink:href="#DejaVuSans-68" transform="translate(287.5 0)"/>
     <use xlink:href="#DejaVuSans-61" transform="translate(350.878906 0)"/>
     <use xlink:href="#DejaVuSans-72" transform="translate(412.158203 0)"/>
     <use xlink:href="#DejaVuSans-65" transform="translate(451.021484 0)"/>
     <use xlink:href="#DejaVuSans-64" transform="translate(512.544922 0)"/>
     <use xlink:href="#DejaVuSans-20" transform="translate(576.021484 0)"/>
     <use xlink:href="#DejaVuSans-73" transform="translate(607.808594 0)"/>
     <use xlink:href="#DejaVuSans-79" transform="translate(659.908203 0)"/>
     <use xlink:href="#DejaVuSans-73" transform="translate(719.087891 0)"/>
     <use xlink:href="#DejaVuSans-74" transform="translate(771.1875 0)"/>
     <use xlink:href="#DejaVuSans-65" transform="translate(810.396484 0)"/>
     <use xlink:href="#DejaVuSans-6d" transform="translate(871.919922 0)"/>
     <use xlink:href="#DejaVuSans-2c" transform="translate(969.332031 0)"/>
     <use xlink:href="#DejaVuSans-20" transform="translate(1001.119141 0)"/>
     <use xlink:href="#DejaVuSans-74" transform="translate(1032.90625 0)"/>
     <use xlink:href="#DejaVuSans-77" transform="translate(1072.115234 0)"/>
     <use xlink:href="#DejaVuSans-6f" transform="translate(1153.902344 0)"/>
     <use xlink:href="#DejaVuSans-20" transform="translate(1215.083984 0)"/>
     <use xlink:href="#DejaVuSans-6f" transform="translate(1246.871094 0)"/>
     <use xlink:href="#DejaVuSans-62" transform="translate(1308.052734 0)"/>
     <use xlink:href="#DejaVuSans-73" transform="translate(1371.529297 0)"/>
     <use xlink:href="#DejaVuSans-65" transform="translate(1423.628906 0)"/>
     <use xlink:href="#DejaVuSans-72" transform="translate(1485.152344 0)"/>
     <use xlink:href="#DejaVuSans-76" transform="translate(1526.265625 0)"/>
     <use xlink:href="#DejaVuSans-61" transform="translate(1585.445312 0)"/>
     <use xlink:href="#DejaVuSans-74" transform="translate(1646.724609 0)"/>
     <use xlink:href="#DejaVuSans-69" transform="translate(1685.933594 0)"/>
     <use xlink:href="#DejaVuSans-6f" transform="translate(1713.716797 0)"/>
     <use xlink:href="#DejaVuSans-6e" transform="translate(1774.898438 0)"/>
     <use xlink:href="#DejaVuSans-2d" transform="translate(1838.277344 0)"/>
     <use xlink:href="#DejaVuSans-67" transform="translate(1874.361328 0)"/>
     <use xlink:href="#DejaVuSans-61" transform="translate(1937.837891 0)"/>
     <use xlink:href="#DejaVuSans-69" transform="translate(1999.117188 0)"/>
     <use xlink:href="#DejaVuSans-6e" transform="translate(2026.900391 0)"/>
     <use xlink:href="#DejaVuSans-20" transform="translate(2090.279297 0)"/>
     <use xlink:href="#DejaVuSans-77" transform="translate(2122.066406 0)"/>
     <use xlink:href="#DejaVuSans-65" transform="translate(2203.853516 0)"/>
     <use xlink:href="#DejaVuSans-69" transform="translate(2265.376953 0)"/>
     <use xlink:href="#DejaVuSans-67" transform="translate(2293.160156 0)"/>
     <use xlink:href="#DejaVuSans-68" transform="translate(2356.636719 0)"/>
     <use xlink:href="#DejaVuSans-74" transform="translate(2420.015625 0)"/>
     <use xlink:href="#DejaVuSans-69" transform="translate(2459.224609 0)"/>
     <use xlink:href="#DejaVuSans-6e" transform="translate(2487.007812 0)"/>
     <use xlink:href="#DejaVuSans-67" transform="translate(2550.386719 0)"/>
     <use xlink:href="#DejaVuSans-73" transform="translate(2613.863281 0)"/>
    </g>
   </g>
   <g id="text_2">
    <!-- Shared state, candidate viewpoints, finite-scan opportunity $w(v,x)$ -->
    <g transform="translate(133.6 60.810066) scale(0.1 -0.1)">
     <defs>
      <path id="DejaVuSans-53" d="M 3425 4513 
L 3425 3897 
Q 3066 4069 2747 4153 
Q 2428 4238 2131 4238 
Q 1616 4238 1336 4038 
Q 1056 3838 1056 3469 
Q 1056 3159 1242 3001 
Q 1428 2844 1947 2747 
L 2328 2669 
Q 3034 2534 3370 2195 
Q 3706 1856 3706 1288 
Q 3706 609 3251 259 
Q 2797 -91 1919 -91 
Q 1588 -91 1214 -16 
Q 841 59 441 206 
L 441 856 
Q 825 641 1194 531 
Q 1563 422 1919 422 
Q 2459 422 2753 634 
Q 3047 847 3047 1241 
Q 3047 1584 2836 1778 
Q 2625 1972 2144 2069 
L 1759 2144 
Q 1053 2284 737 2584 
Q 422 2884 422 3419 
Q 422 4038 858 4394 
Q 1294 4750 2059 4750 
Q 2388 4750 2728 4690 
Q 3069 4631 3425 4513 
z
" transform="scale(0.015625)"/>
      <path id="DejaVuSans-63" d="M 3122 3366 
L 3122 2828 
Q 2878 2963 2633 3030 
Q 2388 3097 2138 3097 
Q 1578 3097 1268 2742 
Q 959 2388 959 1747 
Q 959 1106 1268 751 
Q 1578 397 2138 397 
Q 2388 397 2633 464 
Q 2878 531 3122 666 
L 3122 134 
Q 2881 22 2623 -34 
Q 2366 -91 2075 -91 
Q 1284 -91 818 406 
Q 353 903 353 1747 
Q 353 2603 823 3093 
Q 1294 3584 2113 3584 
Q 2378 3584 2631 3529 
Q 2884 3475 3122 3366 
z
" transform="scale(0.015625)"/>
      <path id="DejaVuSans-70" d="M 1159 525 
L 1159 -1331 
L 581 -1331 
L 581 3500 
L 1159 3500 
L 1159 2969 
Q 1341 3281 1617 3432 
Q 1894 3584 2278 3584 
Q 2916 3584 3314 3078 
Q 3713 2572 3713 1747 
Q 3713 922 3314 415 
Q 2916 -91 2278 -91 
Q 1894 -91 1617 61 
Q 1341 213 1159 525 
z
M 3116 1747 
Q 3116 2381 2855 2742 
Q 2594 3103 2138 3103 
Q 1681 3103 1420 2742 
Q 1159 2381 1159 1747 
Q 1159 1113 1420 752 
Q 1681 391 2138 391 
Q 2594 391 2855 752 
Q 3116 1113 3116 1747 
z
" transform="scale(0.015625)"/>
      <path id="DejaVuSans-66" d="M 2375 4863 
L 2375 4384 
L 1825 4384 
Q 1516 4384 1395 4259 
Q 1275 4134 1275 3809 
L 1275 3500 
L 2222 3500 
L 2222 3053 
L 1275 3053 
L 1275 0 
L 697 0 
L 697 3053 
L 147 3053 
L 147 3500 
L 697 3500 
L 697 3744 
Q 697 4328 969 4595 
Q 1241 4863 1831 4863 
L 2375 4863 
z
" transform="scale(0.015625)"/>
      <path id="DejaVuSans-75" d="M 544 1381 
L 544 3500 
L 1119 3500 
L 1119 1403 
Q 1119 906 1312 657 
Q 1506 409 1894 409 
Q 2359 409 2629 706 
Q 2900 1003 2900 1516 
L 2900 3500 
L 3475 3500 
L 3475 0 
L 2900 0 
L 2900 538 
Q 2691 219 2414 64 
Q 2138 -91 1772 -91 
Q 1169 -91 856 284 
Q 544 659 544 1381 
z
M 1991 3584 
L 1991 3584 
z
" transform="scale(0.015625)"/>
      <path id="DejaVuSans-Oblique-77" d="M 544 3500 
L 1113 3500 
L 1259 684 
L 2566 3500 
L 3231 3500 
L 3425 684 
L 4666 3500 
L 5241 3500 
L 3641 0 
L 2969 0 
L 2797 2900 
L 1459 0 
L 781 0 
L 544 3500 
z
" transform="scale(0.015625)"/>
      <path id="DejaVuSans-28" d="M 1984 4856 
Q 1566 4138 1362 3434 
Q 1159 2731 1159 2009 
Q 1159 1288 1364 580 
Q 1569 -128 1984 -844 
L 1484 -844 
Q 1016 -109 783 600 
Q 550 1309 550 2009 
Q 550 2706 781 3412 
Q 1013 4119 1484 4856 
L 1984 4856 
z
" transform="scale(0.015625)"/>
      <path id="DejaVuSans-Oblique-76" d="M 459 3500 
L 1069 3500 
L 1581 525 
L 3256 3500 
L 3866 3500 
L 1875 0 
L 1100 0 
L 459 3500 
z
" transform="scale(0.015625)"/>
      <path id="DejaVuSans-Oblique-78" d="M 3841 3500 
L 2234 1784 
L 3219 0 
L 2559 0 
L 1819 1388 
L 531 0 
L -166 0 
L 1556 1844 
L 641 3500 
L 1300 3500 
L 1972 2234 
L 3144 3500 
L 3841 3500 
z
" transform="scale(0.015625)"/>
      <path id="DejaVuSans-29" d="M 513 4856 
L 1013 4856 
Q 1481 4119 1714 3412 
Q 1947 2706 1947 2009 
Q 1947 1309 1714 600 
Q 1481 -109 1013 -844 
L 513 -844 
Q 928 -128 1133 580 
Q 1338 1288 1338 2009 
Q 1338 2731 1133 3434 
Q 928 4138 513 4856 
z
" transform="scale(0.015625)"/>
     </defs>
     <use xlink:href="#DejaVuSans-53" transform="translate(0 0.015625)"/>
     <use xlink:href="#DejaVuSans-68" transform="translate(63.476562 0.015625)"/>
     <use xlink:href="#DejaVuSans-61" transform="translate(126.855469 0.015625)"/>
     <use xlink:href="#DejaVuSans-72" transform="translate(188.134766 0.015625)"/>
     <use xlink:href="#DejaVuSans-65" transform="translate(229.248047 0.015625)"/>
     <use xlink:href="#DejaVuSans-64" transform="translate(290.771484 0.015625)"/>
     <use xlink:href="#DejaVuSans-20" transform="translate(354.248047 0.015625)"/>
     <use xlink:href="#DejaVuSans-73" transform="translate(386.035156 0.015625)"/>
     <use xlink:href="#DejaVuSans-74" transform="translate(438.134766 0.015625)"/>
     <use xlink:href="#DejaVuSans-61" transform="translate(477.34375 0.015625)"/>
     <use xlink:href="#DejaVuSans-74" transform="translate(538.623047 0.015625)"/>
     <use xlink:href="#DejaVuSans-65" transform="translate(577.832031 0.015625)"/>
     <use xlink:href="#DejaVuSans-2c" transform="translate(639.355469 0.015625)"/>
     <use xlink:href="#DejaVuSans-20" transform="translate(671.142578 0.015625)"/>
     <use xlink:href="#DejaVuSans-63" transform="translate(702.929688 0.015625)"/>
     <use xlink:href="#DejaVuSans-61" transform="translate(757.910156 0.015625)"/>
     <use xlink:href="#DejaVuSans-6e" transform="translate(819.189453 0.015625)"/>
     <use xlink:href="#DejaVuSans-64" transform="translate(882.568359 0.015625)"/>
     <use xlink:href="#DejaVuSans-69" transform="translate(946.044922 0.015625)"/>
     <use xlink:href="#DejaVuSans-64" transform="translate(973.828125 0.015625)"/>
     <use xlink:href="#DejaVuSans-61" transform="translate(1037.304688 0.015625)"/>
     <use xlink:href="#DejaVuSans-74" transform="translate(1098.583984 0.015625)"/>
     <use xlink:href="#DejaVuSans-65" transform="translate(1137.792969 0.015625)"/>
     <use xlink:href="#DejaVuSans-20" transform="translate(1199.316406 0.015625)"/>
     <use xlink:href="#DejaVuSans-76" transform="translate(1231.103516 0.015625)"/>
     <use xlink:href="#DejaVuSans-69" transform="translate(1290.283203 0.015625)"/>
     <use xlink:href="#DejaVuSans-65" transform="translate(1318.066406 0.015625)"/>
     <use xlink:href="#DejaVuSans-77" transform="translate(1379.589844 0.015625)"/>
     <use xlink:href="#DejaVuSans-70" transform="translate(1461.376953 0.015625)"/>
     <use xlink:href="#DejaVuSans-6f" transform="translate(1524.853516 0.015625)"/>
     <use xlink:href="#DejaVuSans-69" transform="translate(1586.035156 0.015625)"/>
     <use xlink:href="#DejaVuSans-6e" transform="translate(1613.818359 0.015625)"/>
     <use xlink:href="#DejaVuSans-74" transform="translate(1677.197266 0.015625)"/>
     <use xlink:href="#DejaVuSans-73" transform="translate(1716.40625 0.015625)"/>
     <use xlink:href="#DejaVuSans-2c" transform="translate(1768.505859 0.015625)"/>
     <use xlink:href="#DejaVuSans-20" transform="translate(1800.292969 0.015625)"/>
     <use xlink:href="#DejaVuSans-66" transform="translate(1832.080078 0.015625)"/>
     <use xlink:href="#DejaVuSans-69" transform="translate(1867.285156 0.015625)"/>
     <use xlink:href="#DejaVuSans-6e" transform="translate(1895.068359 0.015625)"/>
     <use xlink:href="#DejaVuSans-69" transform="translate(1958.447266 0.015625)"/>
     <use xlink:href="#DejaVuSans-74" transform="translate(1986.230469 0.015625)"/>
     <use xlink:href="#DejaVuSans-65" transform="translate(2025.439453 0.015625)"/>
     <use xlink:href="#DejaVuSans-2d" transform="translate(2086.962891 0.015625)"/>
     <use xlink:href="#DejaVuSans-73" transform="translate(2123.046875 0.015625)"/>
     <use xlink:href="#DejaVuSans-63" transform="translate(2175.146484 0.015625)"/>
     <use xlink:href="#DejaVuSans-61" transform="translate(2230.126953 0.015625)"/>
     <use xlink:href="#DejaVuSans-6e" transform="translate(2291.40625 0.015625)"/>
     <use xlink:href="#DejaVuSans-20" transform="translate(2354.785156 0.015625)"/>
     <use xlink:href="#DejaVuSans-6f" transform="translate(2386.572266 0.015625)"/>
     <use xlink:href="#DejaVuSans-70" transform="translate(2447.753906 0.015625)"/>
     <use xlink:href="#DejaVuSans-70" transform="translate(2511.230469 0.015625)"/>
     <use xlink:href="#DejaVuSans-6f" transform="translate(2574.707031 0.015625)"/>
     <use xlink:href="#DejaVuSans-72" transform="translate(2635.888672 0.015625)"/>
     <use xlink:href="#DejaVuSans-74" transform="translate(2677.001953 0.015625)"/>
     <use xlink:href="#DejaVuSans-75" transform="translate(2716.210938 0.015625)"/>
     <use xlink:href="#DejaVuSans-6e" transform="translate(2779.589844 0.015625)"/>
     <use xlink:href="#DejaVuSans-69" transform="translate(2842.96875 0.015625)"/>
     <use xlink:href="#DejaVuSans-74" transform="translate(2870.751953 0.015625)"/>
     <use xlink:href="#DejaVuSans-79" transform="translate(2909.960938 0.015625)"/>
     <use xlink:href="#DejaVuSans-20" transform="translate(2969.140625 0.015625)"/>
     <use xlink:href="#DejaVuSans-Oblique-77" transform="translate(3000.927734 0.015625)"/>
     <use xlink:href="#DejaVuSans-28" transform="translate(3082.714844 0.015625)"/>
     <use xlink:href="#DejaVuSans-Oblique-76" transform="translate(3121.728516 0.015625)"/>
     <use xlink:href="#DejaVuSans-2c" transform="translate(3180.908203 0.015625)"/>
     <use xlink:href="#DejaVuSans-Oblique-78" transform="translate(3232.177734 0.015625)"/>
     <use xlink:href="#DejaVuSans-29" transform="translate(3291.357422 0.015625)"/>
    </g>
    <!-- Shared occlusion, flight cost, updates, three-window budget and Ground execution -->
    <g transform="translate(92.819531 72.028191) scale(0.1 -0.1)">
     <defs>
      <path id="DejaVuSans-6c" d="M 603 4863 
L 1178 4863 
L 1178 0 
L 603 0 
L 603 4863 
z
" transform="scale(0.015625)"/>
      <path id="DejaVuSans-47" d="M 3809 666 
L 3809 1919 
L 2778 1919 
L 2778 2438 
L 4434 2438 
L 4434 434 
Q 4069 175 3628 42 
Q 3188 -91 2688 -91 
Q 1594 -91 976 548 
Q 359 1188 359 2328 
Q 359 3472 976 4111 
Q 1594 4750 2688 4750 
Q 3144 4750 3555 4637 
Q 3966 4525 4313 4306 
L 4313 3634 
Q 3963 3931 3569 4081 
Q 3175 4231 2741 4231 
Q 1884 4231 1454 3753 
Q 1025 3275 1025 2328 
Q 1025 1384 1454 906 
Q 1884 428 2741 428 
Q 3075 428 3337 486 
Q 3600 544 3809 666 
z
" transform="scale(0.015625)"/>
      <path id="DejaVuSans-78" d="M 3513 3500 
L 2247 1797 
L 3578 0 
L 2900 0 
L 1881 1375 
L 863 0 
L 184 0 
L 1544 1831 
L 300 3500 
L 978 3500 
L 1906 2253 
L 2834 3500 
L 3513 3500 
z
" transform="scale(0.015625)"/>
     </defs>
     <use xlink:href="#DejaVuSans-53"/>
     <use xlink:href="#DejaVuSans-68" transform="translate(63.476562 0)"/>
     <use xlink:href="#DejaVuSans-61" transform="translate(126.855469 0)"/>
     <use xlink:href="#DejaVuSans-72" transform="translate(188.134766 0)"/>
     <use xlink:href="#DejaVuSans-65" transform="translate(226.998047 0)"/>
     <use xlink:href="#DejaVuSans-64" transform="translate(288.521484 0)"/>
     <use xlink:href="#DejaVuSans-20" transform="translate(351.998047 0)"/>
     <use xlink:href="#DejaVuSans-6f" transform="translate(383.785156 0)"/>
     <use xlink:href="#DejaVuSans-63" transform="translate(444.966797 0)"/>
     <use xlink:href="#DejaVuSans-63" transform="translate(499.947266 0)"/>
     <use xlink:href="#DejaVuSans-6c" transform="translate(554.927734 0)"/>
     <use xlink:href="#DejaVuSans-75" transform="translate(582.710938 0)"/>
     <use xlink:href="#DejaVuSans-73" transform="translate(646.089844 0)"/>
     <use xlink:href="#DejaVuSans-69" transform="translate(698.189453 0)"/>
     <use xlink:href="#DejaVuSans-6f" transform="translate(725.972656 0)"/>
     <use xlink:href="#DejaVuSans-6e" transform="translate(787.154297 0)"/>
     <use xlink:href="#DejaVuSans-2c" transform="translate(850.533203 0)"/>
     <use xlink:href="#DejaVuSans-20" transform="translate(882.320312 0)"/>
     <use xlink:href="#DejaVuSans-66" transform="translate(914.107422 0)"/>
     <use xlink:href="#DejaVuSans-6c" transform="translate(949.3125 0)"/>
     <use xlink:href="#DejaVuSans-69" transform="translate(977.095703 0)"/>
     <use xlink:href="#DejaVuSans-67" transform="translate(1004.878906 0)"/>
     <use xlink:href="#DejaVuSans-68" transform="translate(1068.355469 0)"/>
     <use xlink:href="#DejaVuSans-74" transform="translate(1131.734375 0)"/>
     <use xlink:href="#DejaVuSans-20" transform="translate(1170.943359 0)"/>
     <use xlink:href="#DejaVuSans-63" transform="translate(1202.730469 0)"/>
     <use xlink:href="#DejaVuSans-6f" transform="translate(1257.710938 0)"/>
     <use xlink:href="#DejaVuSans-73" transform="translate(1318.892578 0)"/>
     <use xlink:href="#DejaVuSans-74" transform="translate(1370.992188 0)"/>
     <use xlink:href="#DejaVuSans-2c" transform="translate(1410.201172 0)"/>
     <use xlink:href="#DejaVuSans-20" transform="translate(1441.988281 0)"/>
     <use xlink:href="#DejaVuSans-75" transform="translate(1473.775391 0)"/>
     <use xlink:href="#DejaVuSans-70" transform="translate(1537.154297 0)"/>
     <use xlink:href="#DejaVuSans-64" transform="translate(1600.630859 0)"/>
     <use xlink:href="#DejaVuSans-61" transform="translate(1664.107422 0)"/>
     <use xlink:href="#DejaVuSans-74" transform="translate(1725.386719 0)"/>
     <use xlink:href="#DejaVuSans-65" transform="translate(1764.595703 0)"/>
     <use xlink:href="#DejaVuSans-73" transform="translate(1826.119141 0)"/>
     <use xlink:href="#DejaVuSans-2c" transform="translate(1878.21875 0)"/>
     <use xlink:href="#DejaVuSans-20" transform="translate(1910.005859 0)"/>
     <use xlink:href="#DejaVuSans-74" transform="translate(1941.792969 0)"/>
     <use xlink:href="#DejaVuSans-68" transform="translate(1981.001953 0)"/>
     <use xlink:href="#DejaVuSans-72" transform="translate(2044.380859 0)"/>
     <use xlink:href="#DejaVuSans-65" transform="translate(2083.244141 0)"/>
     <use xlink:href="#DejaVuSans-65" transform="translate(2144.767578 0)"/>
     <use xlink:href="#DejaVuSans-2d" transform="translate(2206.291016 0)"/>
     <use xlink:href="#DejaVuSans-77" transform="translate(2242.375 0)"/>
     <use xlink:href="#DejaVuSans-69" transform="translate(2324.162109 0)"/>
     <use xlink:href="#DejaVuSans-6e" transform="translate(2351.945312 0)"/>
     <use xlink:href="#DejaVuSans-64" transform="translate(2415.324219 0)"/>
     <use xlink:href="#DejaVuSans-6f" transform="translate(2478.800781 0)"/>
     <use xlink:href="#DejaVuSans-77" transform="translate(2539.982422 0)"/>
     <use xlink:href="#DejaVuSans-20" transform="translate(2621.769531 0)"/>
     <use xlink:href="#DejaVuSans-62" transform="translate(2653.556641 0)"/>
     <use xlink:href="#DejaVuSans-75" transform="translate(2717.033203 0)"/>
     <use xlink:href="#DejaVuSans-64" transform="translate(2780.412109 0)"/>
     <use xlink:href="#DejaVuSans-67" transform="translate(2843.888672 0)"/>
     <use xlink:href="#DejaVuSans-65" transform="translate(2907.365234 0)"/>
     <use xlink:href="#DejaVuSans-74" transform="translate(2968.888672 0)"/>
     <use xlink:href="#DejaVuSans-20" transform="translate(3008.097656 0)"/>
     <use xlink:href="#DejaVuSans-61" transform="translate(3039.884766 0)"/>
     <use xlink:href="#DejaVuSans-6e" transform="translate(3101.164062 0)"/>
     <use xlink:href="#DejaVuSans-64" transform="translate(3164.542969 0)"/>
     <use xlink:href="#DejaVuSans-20" transform="translate(3228.019531 0)"/>
     <use xlink:href="#DejaVuSans-47" transform="translate(3259.806641 0)"/>
     <use xlink:href="#DejaVuSans-72" transform="translate(3337.296875 0)"/>
     <use xlink:href="#DejaVuSans-6f" transform="translate(3376.160156 0)"/>
     <use xlink:href="#DejaVuSans-75" transform="translate(3437.341797 0)"/>
     <use xlink:href="#DejaVuSans-6e" transform="translate(3500.720703 0)"/>
     <use xlink:href="#DejaVuSans-64" transform="translate(3564.099609 0)"/>
     <use xlink:href="#DejaVuSans-20" transform="translate(3627.576172 0)"/>
     <use xlink:href="#DejaVuSans-65" transform="translate(3659.363281 0)"/>
     <use xlink:href="#DejaVuSans-78" transform="translate(3719.136719 0)"/>
     <use xlink:href="#DejaVuSans-65" transform="translate(3775.191406 0)"/>
     <use xlink:href="#DejaVuSans-63" transform="translate(3836.714844 0)"/>
     <use xlink:href="#DejaVuSans-75" transform="translate(3891.695312 0)"/>
     <use xlink:href="#DejaVuSans-74" transform="translate(3955.074219 0)"/>
     <use xlink:href="#DejaVuSans-69" transform="translate(3994.283203 0)"/>
     <use xlink:href="#DejaVuSans-6f" transform="translate(4022.066406 0)"/>
     <use xlink:href="#DejaVuSans-6e" transform="translate(4083.248047 0)"/>
    </g>
   </g>
   <g id="text_3">
    <!-- Generic NBV -->
    <g transform="translate(115.978125 139.834312) scale(0.12 -0.12)">
     <defs>
      <path id="DejaVuSans-4e" d="M 628 4666 
L 1478 4666 
L 3547 763 
L 3547 4666 
L 4159 4666 
L 4159 0 
L 3309 0 
L 1241 3903 
L 1241 0 
L 628 0 
L 628 4666 
z
" transform="scale(0.015625)"/>
      <path id="DejaVuSans-42" d="M 1259 2228 
L 1259 519 
L 2272 519 
Q 2781 519 3026 730 
Q 3272 941 3272 1375 
Q 3272 1813 3026 2020 
Q 2781 2228 2272 2228 
L 1259 2228 
z
M 1259 4147 
L 1259 2741 
L 2194 2741 
Q 2656 2741 2882 2914 
Q 3109 3088 3109 3444 
Q 3109 3797 2882 3972 
Q 2656 4147 2194 4147 
L 1259 4147 
z
M 628 4666 
L 2241 4666 
Q 2963 4666 3353 4366 
Q 3744 4066 3744 3513 
Q 3744 3084 3544 2831 
Q 3344 2578 2956 2516 
Q 3422 2416 3680 2098 
Q 3938 1781 3938 1306 
Q 3938 681 3513 340 
Q 3088 0 2303 0 
L 628 0 
L 628 4666 
z
" transform="scale(0.015625)"/>
      <path id="DejaVuSans-56" d="M 1831 0 
L 50 4666 
L 709 4666 
L 2188 738 
L 3669 4666 
L 4325 4666 
L 2547 0 
L 1831 0 
z
" transform="scale(0.015625)"/>
     </defs>
     <use xlink:href="#DejaVuSans-47"/>
     <use xlink:href="#DejaVuSans-65" transform="translate(77.490234 0)"/>
     <use xlink:href="#DejaVuSans-6e" transform="translate(139.013672 0)"/>
     <use xlink:href="#DejaVuSans-65" transform="translate(202.392578 0)"/>
     <use xlink:href="#DejaVuSans-72" transform="translate(263.916016 0)"/>
     <use xlink:href="#DejaVuSans-69" transform="translate(305.029297 0)"/>
     <use xlink:href="#DejaVuSans-63" transform="translate(332.8125 0)"/>
     <use xlink:href="#DejaVuSans-20" transform="translate(387.792969 0)"/>
     <use xlink:href="#DejaVuSans-4e" transform="translate(419.580078 0)"/>
     <use xlink:href="#DejaVuSans-42" transform="translate(494.384766 0)"/>
     <use xlink:href="#DejaVuSans-56" transform="translate(559.863281 0)"/>
    </g>
    <!--  -->
    <g transform="translate(153.675 153.271687) scale(0.12 -0.12)"/>
    <!-- $G_g(v)=\alpha\sum_x w(v,x)u(x)$ -->
    <g transform="translate(89.355 170.455312) scale(0.12 -0.12)">
     <defs>
      <path id="DejaVuSans-Oblique-47" d="M 3494 697 
L 3738 1919 
L 2700 1919 
L 2797 2438 
L 4453 2438 
L 4050 384 
Q 3634 156 3143 32 
Q 2653 -91 2156 -91 
Q 1278 -91 783 396 
Q 288 884 288 1753 
Q 288 2475 589 3126 
Q 891 3778 1422 4213 
Q 1756 4484 2153 4617 
Q 2550 4750 3034 4750 
Q 3472 4750 3873 4639 
Q 4275 4528 4641 4306 
L 4513 3634 
Q 4231 3928 3853 4083 
Q 3475 4238 3047 4238 
Q 2550 4238 2172 4048 
Q 1794 3859 1497 3463 
Q 1244 3125 1098 2667 
Q 953 2209 953 1734 
Q 953 1081 1287 751 
Q 1622 422 2284 422 
Q 2616 422 2925 492 
Q 3234 563 3494 697 
z
" transform="scale(0.015625)"/>
      <path id="DejaVuSans-Oblique-67" d="M 3816 3500 
L 3219 434 
Q 3047 -456 2561 -893 
Q 2075 -1331 1253 -1331 
Q 950 -1331 690 -1286 
Q 431 -1241 206 -1147 
L 313 -588 
Q 525 -725 762 -790 
Q 1000 -856 1269 -856 
Q 1816 -856 2167 -557 
Q 2519 -259 2631 300 
L 2681 563 
Q 2441 288 2122 144 
Q 1803 0 1434 0 
Q 903 0 598 351 
Q 294 703 294 1319 
Q 294 1803 478 2267 
Q 663 2731 997 3091 
Q 1219 3328 1514 3456 
Q 1809 3584 2131 3584 
Q 2484 3584 2746 3420 
Q 3009 3256 3138 2956 
L 3238 3500 
L 3816 3500 
z
M 2950 2216 
Q 2950 2641 2750 2872 
Q 2550 3103 2181 3103 
Q 1953 3103 1747 3012 
Q 1541 2922 1394 2759 
Q 1156 2491 1023 2127 
Q 891 1763 891 1375 
Q 891 944 1092 712 
Q 1294 481 1672 481 
Q 2219 481 2584 976 
Q 2950 1472 2950 2216 
z
" transform="scale(0.015625)"/>
      <path id="DejaVuSans-3d" d="M 678 2906 
L 4684 2906 
L 4684 2381 
L 678 2381 
L 678 2906 
z
M 678 1631 
L 4684 1631 
L 4684 1100 
L 678 1100 
L 678 1631 
z
" transform="scale(0.015625)"/>
      <path id="DejaVuSans-Oblique-3b1" d="M 2619 1628 
L 2622 2350 
Q 2625 3088 2069 3091 
Q 1653 3094 1394 2747 
Q 1069 2319 959 1747 
Q 825 1059 994 731 
Q 1169 397 1547 397 
Q 1966 397 2319 1063 
L 2619 1628 
z
M 2166 3578 
Q 3141 3594 3128 2584 
Q 3128 2584 3616 3500 
L 4128 3500 
L 3119 1603 
L 3109 919 
Q 3109 766 3194 638 
Q 3291 488 3391 488 
L 3669 488 
L 3575 0 
L 3228 0 
Q 2934 0 2722 263 
Q 2622 394 2619 669 
Q 2416 334 2066 50 
Q 1900 -81 1453 -78 
Q 722 -72 456 397 
Q 184 884 353 1747 
Q 534 2675 1009 3097 
Q 1544 3569 2166 3578 
z
" transform="scale(0.015625)"/>
      <path id="DejaVuSansDisplay-2211" d="M 244 6509 
L 5803 6509 
L 5803 5656 
L 1566 5656 
L 4534 2488 
L 1469 -888 
L 5919 -888 
L 5919 -1738 
L 109 -1738 
L 109 -1078 
L 3316 2463 
L 244 5728 
L 244 6509 
z
" transform="scale(0.015625)"/>
      <path id="DejaVuSans-Oblique-75" d="M 428 1388 
L 838 3500 
L 1416 3500 
L 1006 1409 
Q 975 1256 961 1147 
Q 947 1038 947 966 
Q 947 700 1109 554 
Q 1272 409 1569 409 
Q 2031 409 2368 721 
Q 2706 1034 2809 1563 
L 3194 3500 
L 3769 3500 
L 3091 0 
L 2516 0 
L 2631 550 
Q 2388 244 2052 76 
Q 1716 -91 1338 -91 
Q 878 -91 622 161 
Q 366 413 366 863 
Q 366 956 381 1097 
Q 397 1238 428 1388 
z
" transform="scale(0.015625)"/>
     </defs>
     <use xlink:href="#DejaVuSans-Oblique-47" transform="translate(0 0.296875)"/>
     <use xlink:href="#DejaVuSans-Oblique-67" transform="translate(77.490234 -16.109375) scale(0.7)"/>
     <use xlink:href="#DejaVuSans-28" transform="translate(124.658203 0.296875)"/>
     <use xlink:href="#DejaVuSans-Oblique-76" transform="translate(163.671875 0.296875)"/>
     <use xlink:href="#DejaVuSans-29" transform="translate(222.851562 0.296875)"/>
     <use xlink:href="#DejaVuSans-3d" transform="translate(281.347656 0.296875)"/>
     <use xlink:href="#DejaVuSans-Oblique-3b1" transform="translate(384.619141 0.296875)"/>
     <use xlink:href="#DejaVuSansDisplay-2211" transform="translate(450.537109 0.296875)"/>
     <use xlink:href="#DejaVuSans-Oblique-78" transform="translate(473.537109 -83.890625) scale(0.7)"/>
     <use xlink:href="#DejaVuSans-Oblique-77" transform="translate(541.302734 0.296875)"/>
     <use xlink:href="#DejaVuSans-28" transform="translate(623.089844 0.296875)"/>
     <use xlink:href="#DejaVuSans-Oblique-76" transform="translate(662.103516 0.296875)"/>
     <use xlink:href="#DejaVuSans-2c" transform="translate(721.283203 0.296875)"/>
     <use xlink:href="#DejaVuSans-Oblique-78" transform="translate(772.552734 0.296875)"/>
     <use xlink:href="#DejaVuSans-29" transform="translate(831.732422 0.296875)"/>
     <use xlink:href="#DejaVuSans-Oblique-75" transform="translate(870.746094 0.296875)"/>
     <use xlink:href="#DejaVuSans-28" transform="translate(934.125 0.296875)"/>
     <use xlink:href="#DejaVuSans-Oblique-78" transform="translate(973.138672 0.296875)"/>
     <use xlink:href="#DejaVuSans-29" transform="translate(1032.318359 0.296875)"/>
    </g>
    <!--  -->
    <g transform="translate(153.675 191.597062) scale(0.12 -0.12)"/>
    <!-- Global observation deficit -->
    <g transform="translate(76.637813 205.034437) scale(0.12 -0.12)">
     <use xlink:href="#DejaVuSans-47"/>
     <use xlink:href="#DejaVuSans-6c" transform="translate(77.490234 0)"/>
     <use xlink:href="#DejaVuSans-6f" transform="translate(105.273438 0)"/>
     <use xlink:href="#DejaVuSans-62" transform="translate(166.455078 0)"/>
     <use xlink:href="#DejaVuSans-61" transform="translate(229.931641 0)"/>
     <use xlink:href="#DejaVuSans-6c" transform="translate(291.210938 0)"/>
     <use xlink:href="#DejaVuSans-20" transform="translate(318.994141 0)"/>
     <use xlink:href="#DejaVuSans-6f" transform="translate(350.78125 0)"/>
     <use xlink:href="#DejaVuSans-62" transform="translate(411.962891 0)"/>
     <use xlink:href="#DejaVuSans-73" transform="translate(475.439453 0)"/>
     <use xlink:href="#DejaVuSans-65" transform="translate(527.539062 0)"/>
     <use xlink:href="#DejaVuSans-72" transform="translate(589.0625 0)"/>
     <use xlink:href="#DejaVuSans-76" transform="translate(630.175781 0)"/>
     <use xlink:href="#DejaVuSans-61" transform="translate(689.355469 0)"/>
     <use xlink:href="#DejaVuSans-74" transform="translate(750.634766 0)"/>
     <use xlink:href="#DejaVuSans-69" transform="translate(789.84375 0)"/>
     <use xlink:href="#DejaVuSans-6f" transform="translate(817.626953 0)"/>
     <use xlink:href="#DejaVuSans-6e" transform="translate(878.808594 0)"/>
     <use xlink:href="#DejaVuSans-20" transform="translate(942.1875 0)"/>
     <use xlink:href="#DejaVuSans-64" transform="translate(973.974609 0)"/>
     <use xlink:href="#DejaVuSans-65" transform="translate(1037.451172 0)"/>
     <use xlink:href="#DejaVuSans-66" transform="translate(1098.974609 0)"/>
     <use xlink:href="#DejaVuSans-69" transform="translate(1134.179688 0)"/>
     <use xlink:href="#DejaVuSans-63" transform="translate(1161.962891 0)"/>
     <use xlink:href="#DejaVuSans-69" transform="translate(1216.943359 0)"/>
     <use xlink:href="#DejaVuSans-74" transform="translate(1244.726562 0)"/>
    </g>
    <!-- without manipulation weighting -->
    <g transform="translate(58.360313 218.471812) scale(0.12 -0.12)">
     <use xlink:href="#DejaVuSans-77"/>
     <use xlink:href="#DejaVuSans-69" transform="translate(81.787109 0)"/>
     <use xlink:href="#DejaVuSans-74" transform="translate(109.570312 0)"/>
     <use xlink:href="#DejaVuSans-68" transform="translate(148.779297 0)"/>
     <use xlink:href="#DejaVuSans-6f" transform="translate(212.158203 0)"/>
     <use xlink:href="#DejaVuSans-75" transform="translate(273.339844 0)"/>
     <use xlink:href="#DejaVuSans-74" transform="translate(336.71875 0)"/>
     <use xlink:href="#DejaVuSans-20" transform="translate(375.927734 0)"/>
     <use xlink:href="#DejaVuSans-6d" transform="translate(407.714844 0)"/>
     <use xlink:href="#DejaVuSans-61" transform="translate(505.126953 0)"/>
     <use xlink:href="#DejaVuSans-6e" transform="translate(566.40625 0)"/>
     <use xlink:href="#DejaVuSans-69" transform="translate(629.785156 0)"/>
     <use xlink:href="#DejaVuSans-70" transform="translate(657.568359 0)"/>
     <use xlink:href="#DejaVuSans-75" transform="translate(721.044922 0)"/>
     <use xlink:href="#DejaVuSans-6c" transform="translate(784.423828 0)"/>
     <use xlink:href="#DejaVuSans-61" transform="translate(812.207031 0)"/>
     <use xlink:href="#DejaVuSans-74" transform="translate(873.486328 0)"/>
     <use xlink:href="#DejaVuSans-69" transform="translate(912.695312 0)"/>
     <use xlink:href="#DejaVuSans-6f" transform="translate(940.478516 0)"/>
     <use xlink:href="#DejaVuSans-6e" transform="translate(1001.660156 0)"/>
     <use xlink:href="#DejaVuSans-20" transform="translate(1065.039062 0)"/>
     <use xlink:href="#DejaVuSans-77" transform="translate(1096.826172 0)"/>
     <use xlink:href="#DejaVuSans-65" transform="translate(1178.613281 0)"/>
     <use xlink:href="#DejaVuSans-69" transform="translate(1240.136719 0)"/>
     <use xlink:href="#DejaVuSans-67" transform="translate(1267.919922 0)"/>
     <use xlink:href="#DejaVuSans-68" transform="translate(1331.396484 0)"/>
     <use xlink:href="#DejaVuSans-74" transform="translate(1394.775391 0)"/>
     <use xlink:href="#DejaVuSans-69" transform="translate(1433.984375 0)"/>
     <use xlink:href="#DejaVuSans-6e" transform="translate(1461.767578 0)"/>
     <use xlink:href="#DejaVuSans-67" transform="translate(1525.146484 0)"/>
    </g>
   </g>
   <g id="text_4">
    <!-- Manipulation-aware NBV (Ours) -->
    <g transform="translate(360.132344 142.834937) scale(0.11 -0.11)">
     <defs>
      <path id="DejaVuSans-4d" d="M 628 4666 
L 1569 4666 
L 2759 1491 
L 3956 4666 
L 4897 4666 
L 4897 0 
L 4281 0 
L 4281 4097 
L 3078 897 
L 2444 897 
L 1241 4097 
L 1241 0 
L 628 0 
L 628 4666 
z
" transform="scale(0.015625)"/>
     </defs>
     <use xlink:href="#DejaVuSans-4d"/>
     <use xlink:href="#DejaVuSans-61" transform="translate(86.279297 0)"/>
     <use xlink:href="#DejaVuSans-6e" transform="translate(147.558594 0)"/>
     <use xlink:href="#DejaVuSans-69" transform="translate(210.9375 0)"/>
     <use xlink:href="#DejaVuSans-70" transform="translate(238.720703 0)"/>
     <use xlink:href="#DejaVuSans-75" transform="translate(302.197266 0)"/>
     <use xlink:href="#DejaVuSans-6c" transform="translate(365.576172 0)"/>
     <use xlink:href="#DejaVuSans-61" transform="translate(393.359375 0)"/>
     <use xlink:href="#DejaVuSans-74" transform="translate(454.638672 0)"/>
     <use xlink:href="#DejaVuSans-69" transform="translate(493.847656 0)"/>
     <use xlink:href="#DejaVuSans-6f" transform="translate(521.630859 0)"/>
     <use xlink:href="#DejaVuSans-6e" transform="translate(582.8125 0)"/>
     <use xlink:href="#DejaVuSans-2d" transform="translate(646.191406 0)"/>
     <use xlink:href="#DejaVuSans-61" transform="translate(682.275391 0)"/>
     <use xlink:href="#DejaVuSans-77" transform="translate(743.554688 0)"/>
     <use xlink:href="#DejaVuSans-61" transform="translate(825.341797 0)"/>
     <use xlink:href="#DejaVuSans-72" transform="translate(886.621094 0)"/>
     <use xlink:href="#DejaVuSans-65" transform="translate(925.484375 0)"/>
     <use xlink:href="#DejaVuSans-20" transform="translate(987.007812 0)"/>
     <use xlink:href="#DejaVuSans-4e" transform="translate(1018.794922 0)"/>
     <use xlink:href="#DejaVuSans-42" transform="translate(1093.599609 0)"/>
     <use xlink:href="#DejaVuSans-56" transform="translate(1159.078125 0)"/>
     <use xlink:href="#DejaVuSans-20" transform="translate(1227.486328 0)"/>
     <use xlink:href="#DejaVuSans-28" transform="translate(1259.273438 0)"/>
     <use xlink:href="#DejaVuSans-4f" transform="translate(1298.287109 0)"/>
     <use xlink:href="#DejaVuSans-75" transform="translate(1376.998047 0)"/>
     <use xlink:href="#DejaVuSans-72" transform="translate(1440.376953 0)"/>
     <use xlink:href="#DejaVuSans-73" transform="translate(1481.490234 0)"/>
     <use xlink:href="#DejaVuSans-29" transform="translate(1533.589844 0)"/>
    </g>
    <!--  -->
    <g transform="translate(446.625 155.152531) scale(0.11 -0.11)"/>
    <!-- $G_o(v)=\alpha\sum_x w(v,x)u(x)M_{op}(x)$ -->
    <g transform="translate(370.505 170.904187) scale(0.11 -0.11)">
     <defs>
      <path id="DejaVuSans-Oblique-6f" d="M 1625 -91 
Q 1009 -91 651 289 
Q 294 669 294 1325 
Q 294 1706 417 2101 
Q 541 2497 738 2766 
Q 1047 3184 1428 3384 
Q 1809 3584 2291 3584 
Q 2888 3584 3255 3212 
Q 3622 2841 3622 2241 
Q 3622 1825 3500 1412 
Q 3378 1000 3181 728 
Q 2875 309 2494 109 
Q 2113 -91 1625 -91 
z
M 891 1344 
Q 891 869 1089 633 
Q 1288 397 1691 397 
Q 2269 397 2648 901 
Q 3028 1406 3028 2181 
Q 3028 2634 2825 2865 
Q 2622 3097 2228 3097 
Q 1903 3097 1650 2945 
Q 1397 2794 1197 2484 
Q 1050 2253 970 1956 
Q 891 1659 891 1344 
z
" transform="scale(0.015625)"/>
      <path id="DejaVuSans-Oblique-4d" d="M 1081 4666 
L 2028 4666 
L 2572 1522 
L 4378 4666 
L 5350 4666 
L 4441 0 
L 3828 0 
L 4622 4091 
L 2791 897 
L 2175 897 
L 1581 4103 
L 788 0 
L 172 0 
L 1081 4666 
z
" transform="scale(0.015625)"/>
      <path id="DejaVuSans-Oblique-70" d="M 3175 2156 
Q 3175 2616 2975 2859 
Q 2775 3103 2400 3103 
Q 2144 3103 1911 2972 
Q 1678 2841 1497 2591 
Q 1319 2344 1212 1994 
Q 1106 1644 1106 1300 
Q 1106 863 1306 627 
Q 1506 391 1875 391 
Q 2147 391 2380 519 
Q 2613 647 2778 891 
Q 2956 1147 3065 1494 
Q 3175 1841 3175 2156 
z
M 1394 2969 
Q 1625 3272 1939 3428 
Q 2253 3584 2638 3584 
Q 3175 3584 3472 3232 
Q 3769 2881 3769 2247 
Q 3769 1728 3584 1258 
Q 3400 788 3053 416 
Q 2822 169 2531 39 
Q 2241 -91 1919 -91 
Q 1547 -91 1294 64 
Q 1041 219 916 525 
L 556 -1331 
L -19 -1331 
L 922 3500 
L 1497 3500 
L 1394 2969 
z
" transform="scale(0.015625)"/>
     </defs>
     <use xlink:href="#DejaVuSans-Oblique-47" transform="translate(0 0.296875)"/>
     <use xlink:href="#DejaVuSans-Oblique-6f" transform="translate(77.490234 -16.109375) scale(0.7)"/>
     <use xlink:href="#DejaVuSans-28" transform="translate(123.051758 0.296875)"/>
     <use xlink:href="#DejaVuSans-Oblique-76" transform="translate(162.06543 0.296875)"/>
     <use xlink:href="#DejaVuSans-29" transform="translate(221.245117 0.296875)"/>
     <use xlink:href="#DejaVuSans-3d" transform="translate(279.741211 0.296875)"/>
     <use xlink:href="#DejaVuSans-Oblique-3b1" transform="translate(383.012695 0.296875)"/>
     <use xlink:href="#DejaVuSansDisplay-2211" transform="translate(448.930664 0.296875)"/>
     <use xlink:href="#DejaVuSans-Oblique-78" transform="translate(471.930664 -83.890625) scale(0.7)"/>
     <use xlink:href="#DejaVuSans-Oblique-77" transform="translate(539.696289 0.296875)"/>
     <use xlink:href="#DejaVuSans-28" transform="translate(621.483398 0.296875)"/>
     <use xlink:href="#DejaVuSans-Oblique-76" transform="translate(660.49707 0.296875)"/>
     <use xlink:href="#DejaVuSans-2c" transform="translate(719.676758 0.296875)"/>
     <use xlink:href="#DejaVuSans-Oblique-78" transform="translate(770.946289 0.296875)"/>
     <use xlink:href="#DejaVuSans-29" transform="translate(830.125977 0.296875)"/>
     <use xlink:href="#DejaVuSans-Oblique-75" transform="translate(869.139648 0.296875)"/>
     <use xlink:href="#DejaVuSans-28" transform="translate(932.518555 0.296875)"/>
     <use xlink:href="#DejaVuSans-Oblique-78" transform="translate(971.532227 0.296875)"/>
     <use xlink:href="#DejaVuSans-29" transform="translate(1030.711914 0.296875)"/>
     <use xlink:href="#DejaVuSans-Oblique-4d" transform="translate(1069.725586 0.296875)"/>
     <use xlink:href="#DejaVuSans-Oblique-6f" transform="translate(1156.004883 -16.109375) scale(0.7)"/>
     <use xlink:href="#DejaVuSans-Oblique-70" transform="translate(1198.832031 -16.109375) scale(0.7)"/>
     <use xlink:href="#DejaVuSans-28" transform="translate(1246 0.296875)"/>
     <use xlink:href="#DejaVuSans-Oblique-78" transform="translate(1285.013672 0.296875)"/>
     <use xlink:href="#DejaVuSans-29" transform="translate(1344.193359 0.296875)"/>
    </g>
    <!--  -->
    <g transform="translate(446.625 190.284125) scale(0.11 -0.11)"/>
    <!-- Deficit within viable -->
    <g transform="translate(392.098516 202.601719) scale(0.11 -0.11)">
     <defs>
      <path id="DejaVuSans-44" d="M 1259 4147 
L 1259 519 
L 2022 519 
Q 2988 519 3436 956 
Q 3884 1394 3884 2338 
Q 3884 3275 3436 3711 
Q 2988 4147 2022 4147 
L 1259 4147 
z
M 628 4666 
L 1925 4666 
Q 3281 4666 3915 4102 
Q 4550 3538 4550 2338 
Q 4550 1131 3912 565 
Q 3275 0 1925 0 
L 628 0 
L 628 4666 
z
" transform="scale(0.015625)"/>
     </defs>
     <use xlink:href="#DejaVuSans-44"/>
     <use xlink:href="#DejaVuSans-65" transform="translate(77.001953 0)"/>
     <use xlink:href="#DejaVuSans-66" transform="translate(138.525391 0)"/>
     <use xlink:href="#DejaVuSans-69" transform="translate(173.730469 0)"/>
     <use xlink:href="#DejaVuSans-63" transform="translate(201.513672 0)"/>
     <use xlink:href="#DejaVuSans-69" transform="translate(256.494141 0)"/>
     <use xlink:href="#DejaVuSans-74" transform="translate(284.277344 0)"/>
     <use xlink:href="#DejaVuSans-20" transform="translate(323.486328 0)"/>
     <use xlink:href="#DejaVuSans-77" transform="translate(355.273438 0)"/>
     <use xlink:href="#DejaVuSans-69" transform="translate(437.060547 0)"/>
     <use xlink:href="#DejaVuSans-74" transform="translate(464.84375 0)"/>
     <use xlink:href="#DejaVuSans-68" transform="translate(504.052734 0)"/>
     <use xlink:href="#DejaVuSans-69" transform="translate(567.431641 0)"/>
     <use xlink:href="#DejaVuSans-6e" transform="translate(595.214844 0)"/>
     <use xlink:href="#DejaVuSans-20" transform="translate(658.59375 0)"/>
     <use xlink:href="#DejaVuSans-76" transform="translate(690.380859 0)"/>
     <use xlink:href="#DejaVuSans-69" transform="translate(749.560547 0)"/>
     <use xlink:href="#DejaVuSans-61" transform="translate(777.34375 0)"/>
     <use xlink:href="#DejaVuSans-62" transform="translate(838.623047 0)"/>
     <use xlink:href="#DejaVuSans-6c" transform="translate(902.099609 0)"/>
     <use xlink:href="#DejaVuSans-65" transform="translate(929.882812 0)"/>
    </g>
    <!-- manipulation-support footprints -->
    <g transform="translate(359.013437 214.919312) scale(0.11 -0.11)">
     <use xlink:href="#DejaVuSans-6d"/>
     <use xlink:href="#DejaVuSans-61" transform="translate(97.412109 0)"/>
     <use xlink:href="#DejaVuSans-6e" transform="translate(158.691406 0)"/>
     <use xlink:href="#DejaVuSans-69" transform="translate(222.070312 0)"/>
     <use xlink:href="#DejaVuSans-70" transform="translate(249.853516 0)"/>
     <use xlink:href="#DejaVuSans-75" transform="translate(313.330078 0)"/>
     <use xlink:href="#DejaVuSans-6c" transform="translate(376.708984 0)"/>
     <use xlink:href="#DejaVuSans-61" transform="translate(404.492188 0)"/>
     <use xlink:href="#DejaVuSans-74" transform="translate(465.771484 0)"/>
     <use xlink:href="#DejaVuSans-69" transform="translate(504.980469 0)"/>
     <use xlink:href="#DejaVuSans-6f" transform="translate(532.763672 0)"/>
     <use xlink:href="#DejaVuSans-6e" transform="translate(593.945312 0)"/>
     <use xlink:href="#DejaVuSans-2d" transform="translate(657.324219 0)"/>
     <use xlink:href="#DejaVuSans-73" transform="translate(693.408203 0)"/>
     <use xlink:href="#DejaVuSans-75" transform="translate(745.507812 0)"/>
     <use xlink:href="#DejaVuSans-70" transform="translate(808.886719 0)"/>
     <use xlink:href="#DejaVuSans-70" transform="translate(872.363281 0)"/>
     <use xlink:href="#DejaVuSans-6f" transform="translate(935.839844 0)"/>
     <use xlink:href="#DejaVuSans-72" transform="translate(997.021484 0)"/>
     <use xlink:href="#DejaVuSans-74" transform="translate(1038.134766 0)"/>
     <use xlink:href="#DejaVuSans-20" transform="translate(1077.34375 0)"/>
     <use xlink:href="#DejaVuSans-66" transform="translate(1109.130859 0)"/>
     <use xlink:href="#DejaVuSans-6f" transform="translate(1144.335938 0)"/>
     <use xlink:href="#DejaVuSans-6f" transform="translate(1205.517578 0)"/>
     <use xlink:href="#DejaVuSans-74" transform="translate(1266.699219 0)"/>
     <use xlink:href="#DejaVuSans-70" transform="translate(1305.908203 0)"/>
     <use xlink:href="#DejaVuSans-72" transform="translate(1369.384766 0)"/>
     <use xlink:href="#DejaVuSans-69" transform="translate(1410.498047 0)"/>
     <use xlink:href="#DejaVuSans-6e" transform="translate(1438.28125 0)"/>
     <use xlink:href="#DejaVuSans-74" transform="translate(1501.660156 0)"/>
     <use xlink:href="#DejaVuSans-73" transform="translate(1540.869141 0)"/>
    </g>
   </g>
   <g id="patch_6">
    <path d="M 181.748779 85.780304 
Q 168.322748 103.159652 155.785278 119.3888 
" style="fill: none; stroke: #405164; stroke-width: 1.3; stroke-linecap: round"/>
    <path d="M 159.813395 117.446052 
L 155.785278 119.3888 
L 156.64795 115.000657 
" style="fill: none; stroke: #405164; stroke-width: 1.3; stroke-linecap: round"/>
   </g>
   <g id="patch_7">
    <path d="M 418.551221 85.780304 
Q 431.977252 103.159652 444.514722 119.3888 
" style="fill: none; stroke: #405164; stroke-width: 1.3; stroke-linecap: round"/>
    <path d="M 443.65205 115.000657 
L 444.514722 119.3888 
L 440.486605 117.446052 
" style="fill: none; stroke: #405164; stroke-width: 1.3; stroke-linecap: round"/>
   </g>
   <g id="text_5">
    <!-- $S_m(v)=G_m(v)-\lambda C(v),\quad\alpha=1-e^{-1/\tau}$ -->
    <g transform="translate(199.445 277.562999) scale(0.11 -0.11)">
     <defs>
      <path id="DejaVuSans-Oblique-53" d="M 3859 4513 
L 3738 3897 
Q 3422 4066 3111 4152 
Q 2800 4238 2509 4238 
Q 1944 4238 1609 3991 
Q 1275 3744 1275 3334 
Q 1275 3109 1398 2989 
Q 1522 2869 2034 2731 
L 2413 2638 
Q 3053 2472 3303 2217 
Q 3553 1963 3553 1503 
Q 3553 797 2998 353 
Q 2444 -91 1538 -91 
Q 1166 -91 791 -17 
Q 416 56 38 206 
L 166 856 
Q 513 641 861 531 
Q 1209 422 1556 422 
Q 2147 422 2503 684 
Q 2859 947 2859 1369 
Q 2859 1650 2717 1795 
Q 2575 1941 2106 2059 
L 1728 2156 
Q 1081 2325 845 2545 
Q 609 2766 609 3163 
Q 609 3859 1145 4304 
Q 1681 4750 2541 4750 
Q 2875 4750 3203 4690 
Q 3531 4631 3859 4513 
z
" transform="scale(0.015625)"/>
      <path id="DejaVuSans-Oblique-6d" d="M 5747 2113 
L 5338 0 
L 4763 0 
L 5166 2094 
Q 5191 2228 5203 2325 
Q 5216 2422 5216 2491 
Q 5216 2772 5059 2928 
Q 4903 3084 4622 3084 
Q 4203 3084 3875 2770 
Q 3547 2456 3450 1953 
L 3066 0 
L 2491 0 
L 2900 2094 
Q 2925 2209 2937 2307 
Q 2950 2406 2950 2484 
Q 2950 2769 2794 2926 
Q 2638 3084 2363 3084 
Q 1938 3084 1609 2770 
Q 1281 2456 1184 1953 
L 800 0 
L 225 0 
L 909 3500 
L 1484 3500 
L 1375 2956 
Q 1609 3263 1923 3423 
Q 2238 3584 2597 3584 
Q 2978 3584 3223 3384 
Q 3469 3184 3519 2828 
Q 3781 3197 4126 3390 
Q 4472 3584 4856 3584 
Q 5306 3584 5551 3325 
Q 5797 3066 5797 2591 
Q 5797 2488 5784 2364 
Q 5772 2241 5747 2113 
z
" transform="scale(0.015625)"/>
      <path id="DejaVuSans-2212" d="M 678 2272 
L 4684 2272 
L 4684 1741 
L 678 1741 
L 678 2272 
z
" transform="scale(0.015625)"/>
      <path id="DejaVuSans-Oblique-3bb" d="M 2350 4316 
L 3125 0 
L 2516 0 
L 2038 2588 
L 328 0 
L -281 0 
L 1903 3356 
L 1794 3975 
Q 1725 4369 1391 4369 
L 1091 4369 
L 1184 4863 
L 1550 4856 
Q 2253 4847 2350 4316 
z
" transform="scale(0.015625)"/>
      <path id="DejaVuSans-Oblique-43" d="M 4447 4306 
L 4319 3641 
Q 4019 3944 3683 4091 
Q 3347 4238 2956 4238 
Q 2422 4238 2017 3981 
Q 1613 3725 1319 3200 
Q 1131 2863 1032 2486 
Q 934 2109 934 1728 
Q 934 1091 1264 756 
Q 1594 422 2222 422 
Q 2656 422 3056 561 
Q 3456 700 3834 978 
L 3688 231 
Q 3316 72 2936 -9 
Q 2556 -91 2175 -91 
Q 1278 -91 773 396 
Q 269 884 269 1753 
Q 269 2309 461 2846 
Q 653 3384 1013 3828 
Q 1394 4300 1883 4525 
Q 2372 4750 3022 4750 
Q 3422 4750 3780 4639 
Q 4138 4528 4447 4306 
z
" transform="scale(0.015625)"/>
      <path id="DejaVuSans-31" d="M 794 531 
L 1825 531 
L 1825 4091 
L 703 3866 
L 703 4441 
L 1819 4666 
L 2450 4666 
L 2450 531 
L 3481 531 
L 3481 0 
L 794 0 
L 794 531 
z
" transform="scale(0.015625)"/>
      <path id="DejaVuSans-Oblique-65" d="M 3078 2063 
Q 3088 2113 3092 2166 
Q 3097 2219 3097 2272 
Q 3097 2653 2873 2875 
Q 2650 3097 2266 3097 
Q 1838 3097 1509 2826 
Q 1181 2556 1013 2059 
L 3078 2063 
z
M 3578 1613 
L 903 1613 
Q 884 1494 878 1425 
Q 872 1356 872 1306 
Q 872 872 1139 634 
Q 1406 397 1894 397 
Q 2269 397 2603 481 
Q 2938 566 3225 728 
L 3116 159 
Q 2806 34 2476 -28 
Q 2147 -91 1806 -91 
Q 1078 -91 686 257 
Q 294 606 294 1247 
Q 294 1794 489 2264 
Q 684 2734 1063 3103 
Q 1306 3334 1642 3459 
Q 1978 3584 2356 3584 
Q 2950 3584 3301 3228 
Q 3653 2872 3653 2272 
Q 3653 2128 3634 1964 
Q 3616 1800 3578 1613 
z
" transform="scale(0.015625)"/>
      <path id="DejaVuSans-2f" d="M 1625 4666 
L 2156 4666 
L 531 -594 
L 0 -594 
L 1625 4666 
z
" transform="scale(0.015625)"/>
      <path id="DejaVuSans-Oblique-3c4" d="M 2103 638 
Q 2188 488 2525 488 
L 2800 488 
L 2706 0 
L 2363 0 
Q 1800 0 1600 300 
Q 1403 606 1534 1269 
L 1856 2925 
L 541 2925 
L 653 3500 
L 3881 3500 
L 3769 2925 
L 2444 2925 
L 2113 1234 
Q 2025 781 2103 638 
z
" transform="scale(0.015625)"/>
     </defs>
     <use xlink:href="#DejaVuSans-Oblique-53" transform="translate(0 0.684375)"/>
     <use xlink:href="#DejaVuSans-Oblique-6d" transform="translate(63.476562 -15.721875) scale(0.7)"/>
     <use xlink:href="#DejaVuSans-28" transform="translate(134.399414 0.684375)"/>
     <use xlink:href="#DejaVuSans-Oblique-76" transform="translate(173.413086 0.684375)"/>
     <use xlink:href="#DejaVuSans-29" transform="translate(232.592773 0.684375)"/>
     <use xlink:href="#DejaVuSans-3d" transform="translate(291.088867 0.684375)"/>
     <use xlink:href="#DejaVuSans-Oblique-47" transform="translate(394.360352 0.684375)"/>
     <use xlink:href="#DejaVuSans-Oblique-6d" transform="translate(471.850586 -15.721875) scale(0.7)"/>
     <use xlink:href="#DejaVuSans-28" transform="translate(542.773438 0.684375)"/>
     <use xlink:href="#DejaVuSans-Oblique-76" transform="translate(581.787109 0.684375)"/>
     <use xlink:href="#DejaVuSans-29" transform="translate(640.966797 0.684375)"/>
     <use xlink:href="#DejaVuSans-2212" transform="translate(699.462891 0.684375)"/>
     <use xlink:href="#DejaVuSans-Oblique-3bb" transform="translate(802.734375 0.684375)"/>
     <use xlink:href="#DejaVuSans-Oblique-43" transform="translate(861.914062 0.684375)"/>
     <use xlink:href="#DejaVuSans-28" transform="translate(931.738281 0.684375)"/>
     <use xlink:href="#DejaVuSans-Oblique-76" transform="translate(970.751953 0.684375)"/>
     <use xlink:href="#DejaVuSans-29" transform="translate(1029.931641 0.684375)"/>
     <use xlink:href="#DejaVuSans-2c" transform="translate(1068.945312 0.684375)"/>
     <use xlink:href="#DejaVuSans-Oblique-3b1" transform="translate(1217.626953 0.684375)"/>
     <use xlink:href="#DejaVuSans-3d" transform="translate(1303.027344 0.684375)"/>
     <use xlink:href="#DejaVuSans-31" transform="translate(1406.298828 0.684375)"/>
     <use xlink:href="#DejaVuSans-2212" transform="translate(1489.404297 0.684375)"/>
     <use xlink:href="#DejaVuSans-Oblique-65" transform="translate(1592.675781 0.684375)"/>
     <use xlink:href="#DejaVuSans-2212" transform="translate(1658.849115 38.965625) scale(0.7)"/>
     <use xlink:href="#DejaVuSans-31" transform="translate(1717.501458 38.965625) scale(0.7)"/>
     <use xlink:href="#DejaVuSans-2f" transform="translate(1762.037591 38.965625) scale(0.7)"/>
     <use xlink:href="#DejaVuSans-Oblique-3c4" transform="translate(1785.621576 38.965625) scale(0.7)"/>
    </g>
    <!-- Same score-based sensing decision and screened-candidate stopping rule -->
    <g transform="translate(95.844766 289.880593) scale(0.11 -0.11)">
     <use xlink:href="#DejaVuSans-53"/>
     <use xlink:href="#DejaVuSans-61" transform="translate(63.476562 0)"/>
     <use xlink:href="#DejaVuSans-6d" transform="translate(124.755859 0)"/>
     <use xlink:href="#DejaVuSans-65" transform="translate(222.167969 0)"/>
     <use xlink:href="#DejaVuSans-20" transform="translate(283.691406 0)"/>
     <use xlink:href="#DejaVuSans-73" transform="translate(315.478516 0)"/>
     <use xlink:href="#DejaVuSans-63" transform="translate(367.578125 0)"/>
     <use xlink:href="#DejaVuSans-6f" transform="translate(422.558594 0)"/>
     <use xlink:href="#DejaVuSans-72" transform="translate(483.740234 0)"/>
     <use xlink:href="#DejaVuSans-65" transform="translate(522.603516 0)"/>
     <use xlink:href="#DejaVuSans-2d" transform="translate(584.126953 0)"/>
     <use xlink:href="#DejaVuSans-62" transform="translate(620.210938 0)"/>
     <use xlink:href="#DejaVuSans-61" transform="translate(683.6875 0)"/>
     <use xlink:href="#DejaVuSans-73" transform="translate(744.966797 0)"/>
     <use xlink:href="#DejaVuSans-65" transform="translate(797.066406 0)"/>
     <use xlink:href="#DejaVuSans-64" transform="translate(858.589844 0)"/>
     <use xlink:href="#DejaVuSans-20" transform="translate(922.066406 0)"/>
     <use xlink:href="#DejaVuSans-73" transform="translate(953.853516 0)"/>
     <use xlink:href="#DejaVuSans-65" transform="translate(1005.953125 0)"/>
     <use xlink:href="#DejaVuSans-6e" transform="translate(1067.476562 0)"/>
     <use xlink:href="#DejaVuSans-73" transform="translate(1130.855469 0)"/>
     <use xlink:href="#DejaVuSans-69" transform="translate(1182.955078 0)"/>
     <use xlink:href="#DejaVuSans-6e" transform="translate(1210.738281 0)"/>
     <use xlink:href="#DejaVuSans-67" transform="translate(1274.117188 0)"/>
     <use xlink:href="#DejaVuSans-20" transform="translate(1337.59375 0)"/>
     <use xlink:href="#DejaVuSans-64" transform="translate(1369.380859 0)"/>
     <use xlink:href="#DejaVuSans-65" transform="translate(1432.857422 0)"/>
     <use xlink:href="#DejaVuSans-63" transform="translate(1494.380859 0)"/>
     <use xlink:href="#DejaVuSans-69" transform="translate(1549.361328 0)"/>
     <use xlink:href="#DejaVuSans-73" transform="translate(1577.144531 0)"/>
     <use xlink:href="#DejaVuSans-69" transform="translate(1629.244141 0)"/>
     <use xlink:href="#DejaVuSans-6f" transform="translate(1657.027344 0)"/>
     <use xlink:href="#DejaVuSans-6e" transform="translate(1718.208984 0)"/>
     <use xlink:href="#DejaVuSans-20" transform="translate(1781.587891 0)"/>
     <use xlink:href="#DejaVuSans-61" transform="translate(1813.375 0)"/>
     <use xlink:href="#DejaVuSans-6e" transform="translate(1874.654297 0)"/>
     <use xlink:href="#DejaVuSans-64" transform="translate(1938.033203 0)"/>
     <use xlink:href="#DejaVuSans-20" transform="translate(2001.509766 0)"/>
     <use xlink:href="#DejaVuSans-73" transform="translate(2033.296875 0)"/>
     <use xlink:href="#DejaVuSans-63" transform="translate(2085.396484 0)"/>
     <use xlink:href="#DejaVuSans-72" transform="translate(2140.376953 0)"/>
     <use xlink:href="#DejaVuSans-65" transform="translate(2179.240234 0)"/>
     <use xlink:href="#DejaVuSans-65" transform="translate(2240.763672 0)"/>
     <use xlink:href="#DejaVuSans-6e" transform="translate(2302.287109 0)"/>
     <use xlink:href="#DejaVuSans-65" transform="translate(2365.666016 0)"/>
     <use xlink:href="#DejaVuSans-64" transform="translate(2427.189453 0)"/>
     <use xlink:href="#DejaVuSans-2d" transform="translate(2490.666016 0)"/>
     <use xlink:href="#DejaVuSans-63" transform="translate(2526.75 0)"/>
     <use xlink:href="#DejaVuSans-61" transform="translate(2581.730469 0)"/>
     <use xlink:href="#DejaVuSans-6e" transform="translate(2643.009766 0)"/>
     <use xlink:href="#DejaVuSans-64" transform="translate(2706.388672 0)"/>
     <use xlink:href="#DejaVuSans-69" transform="translate(2769.865234 0)"/>
     <use xlink:href="#DejaVuSans-64" transform="translate(2797.648438 0)"/>
     <use xlink:href="#DejaVuSans-61" transform="translate(2861.125 0)"/>
     <use xlink:href="#DejaVuSans-74" transform="translate(2922.404297 0)"/>
     <use xlink:href="#DejaVuSans-65" transform="translate(2961.613281 0)"/>
     <use xlink:href="#DejaVuSans-20" transform="translate(3023.136719 0)"/>
     <use xlink:href="#DejaVuSans-73" transform="translate(3054.923828 0)"/>
     <use xlink:href="#DejaVuSans-74" transform="translate(3107.023438 0)"/>
     <use xlink:href="#DejaVuSans-6f" transform="translate(3146.232422 0)"/>
     <use xlink:href="#DejaVuSans-70" transform="translate(3207.414062 0)"/>
     <use xlink:href="#DejaVuSans-70" transform="translate(3270.890625 0)"/>
     <use xlink:href="#DejaVuSans-69" transform="translate(3334.367188 0)"/>
     <use xlink:href="#DejaVuSans-6e" transform="translate(3362.150391 0)"/>
     <use xlink:href="#DejaVuSans-67" transform="translate(3425.529297 0)"/>
     <use xlink:href="#DejaVuSans-20" transform="translate(3489.005859 0)"/>
     <use xlink:href="#DejaVuSans-72" transform="translate(3520.792969 0)"/>
     <use xlink:href="#DejaVuSans-75" transform="translate(3561.90625 0)"/>
     <use xlink:href="#DejaVuSans-6c" transform="translate(3625.285156 0)"/>
     <use xlink:href="#DejaVuSans-65" transform="translate(3653.068359 0)"/>
    </g>
   </g>
   <g id="patch_8">
    <path d="M 155.452297 230.473836 
Q 182.969216 244.573151 209.192608 258.009678 
" style="fill: none; stroke: #405164; stroke-width: 1.3; stroke-linecap: round"/>
    <path d="M 206.544734 254.405686 
L 209.192608 258.009678 
L 204.720689 257.965582 
" style="fill: none; stroke: #405164; stroke-width: 1.3; stroke-linecap: round"/>
   </g>
   <g id="patch_9">
    <path d="M 444.847703 230.473836 
Q 417.330784 244.573151 391.107392 258.009678 
" style="fill: none; stroke: #405164; stroke-width: 1.3; stroke-linecap: round"/>
    <path d="M 395.579311 257.965582 
L 391.107392 258.009678 
L 393.755266 254.405686 
" style="fill: none; stroke: #405164; stroke-width: 1.3; stroke-linecap: round"/>
   </g>
   <g id="text_6">
    <!-- Conceptual diagram, not experimental heatmaps. Opportunity and deficit are surrogates, not calibrated entropy. -->
    <g transform="translate(74.235625 320.573476) scale(0.08 -0.08)">
     <defs>
      <path id="DejaVuSans-43" d="M 4122 4306 
L 4122 3641 
Q 3803 3938 3442 4084 
Q 3081 4231 2675 4231 
Q 1875 4231 1450 3742 
Q 1025 3253 1025 2328 
Q 1025 1406 1450 917 
Q 1875 428 2675 428 
Q 3081 428 3442 575 
Q 3803 722 4122 1019 
L 4122 359 
Q 3791 134 3420 21 
Q 3050 -91 2638 -91 
Q 1578 -91 968 557 
Q 359 1206 359 2328 
Q 359 3453 968 4101 
Q 1578 4750 2638 4750 
Q 3056 4750 3426 4639 
Q 3797 4528 4122 4306 
z
" transform="scale(0.015625)"/>
      <path id="DejaVuSans-2e" d="M 684 794 
L 1344 794 
L 1344 0 
L 684 0 
L 684 794 
z
" transform="scale(0.015625)"/>
     </defs>
     <use xlink:href="#DejaVuSans-43"/>
     <use xlink:href="#DejaVuSans-6f" transform="translate(69.824219 0)"/>
     <use xlink:href="#DejaVuSans-6e" transform="translate(131.005859 0)"/>
     <use xlink:href="#DejaVuSans-63" transform="translate(194.384766 0)"/>
     <use xlink:href="#DejaVuSans-65" transform="translate(249.365234 0)"/>
     <use xlink:href="#DejaVuSans-70" transform="translate(310.888672 0)"/>
     <use xlink:href="#DejaVuSans-74" transform="translate(374.365234 0)"/>
     <use xlink:href="#DejaVuSans-75" transform="translate(413.574219 0)"/>
     <use xlink:href="#DejaVuSans-61" transform="translate(476.953125 0)"/>
     <use xlink:href="#DejaVuSans-6c" transform="translate(538.232422 0)"/>
     <use xlink:href="#DejaVuSans-20" transform="translate(566.015625 0)"/>
     <use xlink:href="#DejaVuSans-64" transform="translate(597.802734 0)"/>
     <use xlink:href="#DejaVuSans-69" transform="translate(661.279297 0)"/>
     <use xlink:href="#DejaVuSans-61" transform="translate(689.0625 0)"/>
     <use xlink:href="#DejaVuSans-67" transform="translate(750.341797 0)"/>
     <use xlink:href="#DejaVuSans-72" transform="translate(813.818359 0)"/>
     <use xlink:href="#DejaVuSans-61" transform="translate(854.931641 0)"/>
     <use xlink:href="#DejaVuSans-6d" transform="translate(916.210938 0)"/>
     <use xlink:href="#DejaVuSans-2c" transform="translate(1013.623047 0)"/>
     <use xlink:href="#DejaVuSans-20" transform="translate(1045.410156 0)"/>
     <use xlink:href="#DejaVuSans-6e" transform="translate(1077.197266 0)"/>
     <use xlink:href="#DejaVuSans-6f" transform="translate(1140.576172 0)"/>
     <use xlink:href="#DejaVuSans-74" transform="translate(1201.757812 0)"/>
     <use xlink:href="#DejaVuSans-20" transform="translate(1240.966797 0)"/>
     <use xlink:href="#DejaVuSans-65" transform="translate(1272.753906 0)"/>
     <use xlink:href="#DejaVuSans-78" transform="translate(1332.527344 0)"/>
     <use xlink:href="#DejaVuSans-70" transform="translate(1391.707031 0)"/>
     <use xlink:href="#DejaVuSans-65" transform="translate(1455.183594 0)"/>
     <use xlink:href="#DejaVuSans-72" transform="translate(1516.707031 0)"/>
     <use xlink:href="#DejaVuSans-69" transform="translate(1557.820312 0)"/>
     <use xlink:href="#DejaVuSans-6d" transform="translate(1585.603516 0)"/>
     <use xlink:href="#DejaVuSans-65" transform="translate(1683.015625 0)"/>
     <use xlink:href="#DejaVuSans-6e" transform="translate(1744.539062 0)"/>
     <use xlink:href="#DejaVuSans-74" transform="translate(1807.917969 0)"/>
     <use xlink:href="#DejaVuSans-61" transform="translate(1847.126953 0)"/>
     <use xlink:href="#DejaVuSans-6c" transform="translate(1908.40625 0)"/>
     <use xlink:href="#DejaVuSans-20" transform="translate(1936.189453 0)"/>
     <use xlink:href="#DejaVuSans-68" transform="translate(1967.976562 0)"/>
     <use xlink:href="#DejaVuSans-65" transform="translate(2031.355469 0)"/>
     <use xlink:href="#DejaVuSans-61" transform="translate(2092.878906 0)"/>
     <use xlink:href="#DejaVuSans-74" transform="translate(2154.158203 0)"/>
     <use xlink:href="#DejaVuSans-6d" transform="translate(2193.367188 0)"/>
     <use xlink:href="#DejaVuSans-61" transform="translate(2290.779297 0)"/>
     <use xlink:href="#DejaVuSans-70" transform="translate(2352.058594 0)"/>
     <use xlink:href="#DejaVuSans-73" transform="translate(2415.535156 0)"/>
     <use xlink:href="#DejaVuSans-2e" transform="translate(2467.634766 0)"/>
     <use xlink:href="#DejaVuSans-20" transform="translate(2499.421875 0)"/>
     <use xlink:href="#DejaVuSans-4f" transform="translate(2531.208984 0)"/>
     <use xlink:href="#DejaVuSans-70" transform="translate(2609.919922 0)"/>
     <use xlink:href="#DejaVuSans-70" transform="translate(2673.396484 0)"/>
     <use xlink:href="#DejaVuSans-6f" transform="translate(2736.873047 0)"/>
     <use xlink:href="#DejaVuSans-72" transform="translate(2798.054688 0)"/>
     <use xlink:href="#DejaVuSans-74" transform="translate(2839.167969 0)"/>
     <use xlink:href="#DejaVuSans-75" transform="translate(2878.376953 0)"/>
     <use xlink:href="#DejaVuSans-6e" transform="translate(2941.755859 0)"/>
     <use xlink:href="#DejaVuSans-69" transform="translate(3005.134766 0)"/>
     <use xlink:href="#DejaVuSans-74" transform="translate(3032.917969 0)"/>
     <use xlink:href="#DejaVuSans-79" transform="translate(3072.126953 0)"/>
     <use xlink:href="#DejaVuSans-20" transform="translate(3131.306641 0)"/>
     <use xlink:href="#DejaVuSans-61" transform="translate(3163.09375 0)"/>
     <use xlink:href="#DejaVuSans-6e" transform="translate(3224.373047 0)"/>
     <use xlink:href="#DejaVuSans-64" transform="translate(3287.751953 0)"/>
     <use xlink:href="#DejaVuSans-20" transform="translate(3351.228516 0)"/>
     <use xlink:href="#DejaVuSans-64" transform="translate(3383.015625 0)"/>
     <use xlink:href="#DejaVuSans-65" transform="translate(3446.492188 0)"/>
     <use xlink:href="#DejaVuSans-66" transform="translate(3508.015625 0)"/>
     <use xlink:href="#DejaVuSans-69" transform="translate(3543.220703 0)"/>
     <use xlink:href="#DejaVuSans-63" transform="translate(3571.003906 0)"/>
     <use xlink:href="#DejaVuSans-69" transform="translate(3625.984375 0)"/>
     <use xlink:href="#DejaVuSans-74" transform="translate(3653.767578 0)"/>
     <use xlink:href="#DejaVuSans-20" transform="translate(3692.976562 0)"/>
     <use xlink:href="#DejaVuSans-61" transform="translate(3724.763672 0)"/>
     <use xlink:href="#DejaVuSans-72" transform="translate(3786.042969 0)"/>
     <use xlink:href="#DejaVuSans-65" transform="translate(3824.90625 0)"/>
     <use xlink:href="#DejaVuSans-20" transform="translate(3886.429688 0)"/>
     <use xlink:href="#DejaVuSans-73" transform="translate(3918.216797 0)"/>
     <use xlink:href="#DejaVuSans-75" transform="translate(3970.316406 0)"/>
     <use xlink:href="#DejaVuSans-72" transform="translate(4033.695312 0)"/>
     <use xlink:href="#DejaVuSans-72" transform="translate(4073.058594 0)"/>
     <use xlink:href="#DejaVuSans-6f" transform="translate(4111.921875 0)"/>
     <use xlink:href="#DejaVuSans-67" transform="translate(4173.103516 0)"/>
     <use xlink:href="#DejaVuSans-61" transform="translate(4236.580078 0)"/>
     <use xlink:href="#DejaVuSans-74" transform="translate(4297.859375 0)"/>
     <use xlink:href="#DejaVuSans-65" transform="translate(4337.068359 0)"/>
     <use xlink:href="#DejaVuSans-73" transform="translate(4398.591797 0)"/>
     <use xlink:href="#DejaVuSans-2c" transform="translate(4450.691406 0)"/>
     <use xlink:href="#DejaVuSans-20" transform="translate(4482.478516 0)"/>
     <use xlink:href="#DejaVuSans-6e" transform="translate(4514.265625 0)"/>
     <use xlink:href="#DejaVuSans-6f" transform="translate(4577.644531 0)"/>
     <use xlink:href="#DejaVuSans-74" transform="translate(4638.826172 0)"/>
     <use xlink:href="#DejaVuSans-20" transform="translate(4678.035156 0)"/>
     <use xlink:href="#DejaVuSans-63" transform="translate(4709.822266 0)"/>
     <use xlink:href="#DejaVuSans-61" transform="translate(4764.802734 0)"/>
     <use xlink:href="#DejaVuSans-6c" transform="translate(4826.082031 0)"/>
     <use xlink:href="#DejaVuSans-69" transform="translate(4853.865234 0)"/>
     <use xlink:href="#DejaVuSans-62" transform="translate(4881.648438 0)"/>
     <use xlink:href="#DejaVuSans-72" transform="translate(4945.125 0)"/>
     <use xlink:href="#DejaVuSans-61" transform="translate(4986.238281 0)"/>
     <use xlink:href="#DejaVuSans-74" transform="translate(5047.517578 0)"/>
     <use xlink:href="#DejaVuSans-65" transform="translate(5086.726562 0)"/>
     <use xlink:href="#DejaVuSans-64" transform="translate(5148.25 0)"/>
     <use xlink:href="#DejaVuSans-20" transform="translate(5211.726562 0)"/>
     <use xlink:href="#DejaVuSans-65" transform="translate(5243.513672 0)"/>
     <use xlink:href="#DejaVuSans-6e" transform="translate(5305.037109 0)"/>
     <use xlink:href="#DejaVuSans-74" transform="translate(5368.416016 0)"/>
     <use xlink:href="#DejaVuSans-72" transform="translate(5407.625 0)"/>
     <use xlink:href="#DejaVuSans-6f" transform="translate(5446.488281 0)"/>
     <use xlink:href="#DejaVuSans-70" transform="translate(5507.669922 0)"/>
     <use xlink:href="#DejaVuSans-79" transform="translate(5571.146484 0)"/>
     <use xlink:href="#DejaVuSans-2e" transform="translate(5616.076172 0)"/>
    </g>
   </g>
  </g>
 </g>
 <defs>
  <clipPath id="pa44c944503">
   <rect x="7.2" y="8.357572" width="585.9" height="316.008"/>
  </clipPath>
 </defs>
</svg>
